<svg xmlns="http://www.w3.org/2000/svg" viewBox="0 0 2000 500" role="img" aria-label="Matrix Team">
  <path fill="#172033" d="M106.985 371.951 131.092 332.189s9.175 12.239 20.034 12.236c10.859-.003 15.619-5.387 25.881-22.798 12.519-21.24 87.158-155.252 128.807-199.418 16.875-18.605 25.119-23.282 41.093-23.478 15.974-.196 21.896 5.559 27.632 11.581 6.448 6.769 21.33 40.968 18.643 51.764-4.699-5.487-23.166-19.107-28.916-17.586-5.272 1.395-8.391 4.925-13.71 10.721-5.319 5.796-8.07 10.417-13.818 18.957-8.302 12.336-121.206 175.955-136.903 196.409-11.404 16.153-27.499 29.94-41.808 34.607-14.309 4.665-20.51 4.321-29.959-2.425-9.448-6.746-12.113-10.358-21.083-30.808Z"/>
  <path fill="#172033" d="M124.752 123.591c-12.46 16.734-17.564 28.653-19.409 40.501l26.224 18.804c11.47-13.723 21.631-6.465 34.692 5.09 13.061 11.555 122.995 168.083 130.371 179.599 10.496 16.386 28.881 36.365 46.122 37.474 16.654 1.071 29.266-13.208 43.033-35.003l-12.237-42.36c-11.291 9.948-19.414 16.598-28.114 12.092-8.7-4.506-18.224-16.582-23.282-24.014 0 0-106.699-151.67-119.064-167.93-8.622-12.744-17.151-21.575-23.806-29.912-8.722-7.528-15.077-10.4-27.459-10.158-12.382.242-20.544 7.051-27.071 15.817Z"/>
  <circle cx="359.7" cy="118" r="7" fill="#172033"/>
  <text x="535" y="305" fill="#172033" font-family="Arial, Helvetica, sans-serif" font-size="220" font-weight="700">MatrixTeam</text>
</svg>
